<?xml version="1.0" encoding="iso-8859-1"?>
<!-- Uploaded to: SVG Repo, www.svgrepo.com, Generator: SVG Repo Mixer Tools -->
<svg fill="#000000" height="800px" width="800px" version="1.1" id="Capa_1" xmlns="http://www.w3.org/2000/svg" xmlns:xlink="http://www.w3.org/1999/xlink" 
	 viewBox="0 0 490.015 490.015" xml:space="preserve">
<g>
	<g>
		<path d="M483.778,196.885l-29.1-29.1l13.5-13.5c4.6-4.3,11.5-17.2,0-29.1l-102.8-102.8c-8.3-8.3-20.8-8.3-29.1,0l-13.5,13.5
			l-29.1-29.1c-8.3-7.3-21.8-7.3-29.1,0l-258.4,256.5c-11.5,12.4-4.2,24.9,0,29.1l29.1,29.1l-13.5,13.5c-8.3,8.3-8.3,20.8,0,29.1
			l102.8,102.8c8.3,7.3,21.8,7.3,29.1,0l13.5-13.5l29.1,29.1c12.6,11.6,24.9,4.2,29.1,0l258.5-256.4
			C492.078,217.585,492.078,205.185,483.778,196.885z M210.678,439.785l-29.1-29.1c-4.2-4.2-16.7-11.5-29.1,0l-13.5,13.5l-73.7-73.7
			l13.6-13.5c8.3-8.3,8.3-20.8,0-29.1l-29.1-29.1l229.5-229.4l29.1,29.1c8.3,7.3,21.8,7.3,29.1,0l13.4-13.5l73.7,73.7l-13.5,13.5
			c-11.6,12.4-4.2,24.9,0,29.1l29.1,29.1L210.678,439.785z"/>
		<path d="M332.178,127.285c-8.3-8.3-20.8-8.3-29.1,0c-8.3,8.3-8.3,20.8,0,29.1l0,0l-58.1,58.1l0,0c-8.3-8.3-20.8-8.3-29.1,0
			s-8.3,20.8,0,29.1l0,0l-59.2,59.2l0,0c-8.3-8.3-20.8-8.3-29.1,0s-8.3,20.8,0,29.1l30.1,30.1c12.8,11.5,25.3,4.5,29.1,0
			c14.8-17.5-1-30.1-1-30.1l59.2-59.2c0,0,16.1,15,30.1,1c8.3-8.3,8.3-20.8,0-29.1l-1-1l58.1-58.1c0,0,13.4,15.8,30.1,1
			c8.8-7.8,8.3-20.8,0-29.1L332.178,127.285z"/>
	</g>
</g>
</svg>